<svg width="286" height="263" viewBox="0 0 286 263" fill="none" xmlns="http://www.w3.org/2000/svg">
<rect x="82.9121" y="2" width="64" height="167" transform="rotate(29.7671 82.9121 2)" fill="black"/>
<rect x="222.001" y="12" width="64" height="167" fill="#3ACBE8"/>
<rect x="157.963" width="64" height="167" transform="rotate(22.149 157.963 0)" fill="black"/>
<path d="M55.5808 213.352H64.6048L78.7169 247H69.3568L59.8528 222.136L50.1568 247H41.1328L55.5808 213.352ZM49.7728 234.328H69.4049V240.952H49.7728V234.328ZM79.3618 213.352H88.1458V239.608H102.402V247H79.3618V213.352ZM101.081 213.352H129.929V220.456H119.849V247H111.065V220.456H101.081V213.352ZM163.427 213.352H189.971V220.264H172.211V226.696H188.243V233.56H172.211V240.088H190.451V247H163.427V213.352ZM204.362 213.352H213.386L227.498 247H218.138L208.634 222.136L198.938 247H189.914L204.362 213.352ZM198.554 234.328H218.186V240.952H198.554V234.328ZM242.639 213.352C245.295 213.352 247.711 213.768 249.887 214.6C252.095 215.4 253.983 216.552 255.551 218.056C257.151 219.528 258.383 221.288 259.247 223.336C260.111 225.384 260.543 227.656 260.543 230.152C260.543 232.68 260.095 234.968 259.199 237.016C258.335 239.064 257.103 240.84 255.503 242.344C253.903 243.848 251.983 245 249.743 245.8C247.503 246.6 245.023 247 242.303 247H228.143V213.352H242.639ZM242.879 239.992C244.159 239.992 245.327 239.768 246.383 239.32C247.439 238.84 248.351 238.168 249.119 237.304C249.919 236.44 250.527 235.416 250.943 234.232C251.359 233.016 251.567 231.688 251.567 230.248C251.567 228.776 251.343 227.448 250.895 226.264C250.447 225.048 249.807 224.008 248.975 223.144C248.175 222.248 247.215 221.576 246.095 221.128C245.007 220.648 243.791 220.408 242.447 220.408H236.927V239.992H242.879Z" fill="black"/>
<path d="M146.213 213.352C150.693 213.352 154.149 214.392 156.581 216.472C159.013 218.52 160.229 221.416 160.229 225.16C160.229 229.096 159.013 232.168 156.581 234.376C154.149 236.552 150.693 237.64 146.213 237.64H139.877V247H131.093V213.352H146.213ZM146.213 230.728C148.037 230.728 149.429 230.28 150.389 229.384C151.381 228.488 151.877 227.16 151.877 225.4C151.877 223.704 151.381 222.424 150.389 221.56C149.429 220.696 148.037 220.264 146.213 220.264H139.877V230.728H146.213ZM144.677 234.424H153.221L161.237 247H151.301L144.677 234.424Z" fill="#3ACBE8"/>
</svg>
